<svg xmlns="http://www.w3.org/2000/svg" viewBox="0 0 430 430"><defs><style>.cls-1,.cls-2{fill:#0068ff;}.cls-2{fill-rule:evenodd;}.cls-3{fill:#00007a;}</style></defs><g id="Artwork"><path class="cls-1" d="M324.53,135.87l-.49-1.68c-5.8-20.9-10.45-25.64-31.35-31.46l-1.74-.39,1.74-.49C313.59,96,318.24,91.39,324,70.39l.49-1.68.48,1.68c5.81,20.9,10.45,25.64,31.36,31.46l1.74.49-1.74.49c-20.91,5.72-25.65,10.46-31.36,31.36Z"/><path class="cls-1" d="M278.82,296.43a22.64,22.64,0,0,0-28.77,13,21.27,21.27,0,0,0,.7,16.65,21.9,21.9,0,0,0,12.61,11.31,4.25,4.25,0,0,0,.75.22v50.15a128.22,128.22,0,0,0,13.9-7.86V337.53c.81-.32,1.62-.43,2.42-.8a21.67,21.67,0,0,0-1.61-40.3Zm.27,23.38a8,8,0,0,1-4.42,4.63,8.64,8.64,0,0,1-6.57.27,8.14,8.14,0,0,1-4.8-4.36,8,8,0,0,1-.27-6.3,8.55,8.55,0,0,1,8-5.44,7.9,7.9,0,0,1,3,.48A8.27,8.27,0,0,1,279.09,319.81Z"/><path class="cls-1" d="M234.05,85.36c-11.64-4.15-24.51,1.67-28.77,13A21.32,21.32,0,0,0,206,115a21.79,21.79,0,0,0,12.61,11.31,4.51,4.51,0,0,0,.75.22V399a119,119,0,0,0,13.85-1.45v-271c.86-.32,1.67-.43,2.48-.8a22,22,0,0,0,11.58-12.29A21.59,21.59,0,0,0,234.05,85.36Zm.27,23.38a8.07,8.07,0,0,1-4.42,4.63,8.65,8.65,0,0,1-6.57.27,8.31,8.31,0,0,1-4.79-4.36,8.13,8.13,0,0,1-.27-6.36,8.58,8.58,0,0,1,8-5.39,8.12,8.12,0,0,1,3,.49A8.27,8.27,0,0,1,234.32,108.74Z"/><path class="cls-2" d="M195.64,146.13a22.55,22.55,0,0,0-28.71,13,21,21,0,0,0,.7,16.65,22,22,0,0,0,12.55,11.31l.7.16H181V291.91l-26.13,22.41v68a107.21,107.21,0,0,0,13.9,7.28V320.67l25.59-22.35.48-58.78V187.23a6.4,6.4,0,0,1,.92-.27,11.7,11.7,0,0,0,1.51-.54,22,22,0,0,0,11.63-12.28A21.54,21.54,0,0,0,195.64,146.13Zm.32,23.32a8.27,8.27,0,0,1-4.47,4.69,8.69,8.69,0,0,1-6.57.27,8.46,8.46,0,0,1-4.79-4.36,7.87,7.87,0,0,1-.22-6.36,8.48,8.48,0,0,1,8-5.39,7.81,7.81,0,0,1,2.91.49A8.23,8.23,0,0,1,196,169.45Z"/><path class="cls-2" d="M134.12,257.59h.11c.21,0,.48-.11.64-.16a22,22,0,0,0,12.61-11.32,21.25,21.25,0,0,0,.7-16.64c-4.26-11.32-17.13-17.13-28.77-13a21.57,21.57,0,0,0-13.2,28,22,22,0,0,0,11.58,12.28,16.2,16.2,0,0,0,1.57.54,5.23,5.23,0,0,1,.91.27v7.54l.49,58.78,11.15,7.92v32.75a137,137,0,0,0,13.9,11.64V325.47l-11.69-8Zm-4-12.82a8.56,8.56,0,0,1-6.52-.27,8,8,0,0,1-4.47-4.69,8.35,8.35,0,0,1,8-11.15,8.59,8.59,0,0,1,8,5.39,7.94,7.94,0,0,1-.27,6.35A8.35,8.35,0,0,1,130.13,244.77Z"/><path class="cls-2" d="M279.9,168.48c-11.64-4.14-24.52,1.67-28.77,13a21.39,21.39,0,0,0,.7,16.7,21.94,21.94,0,0,0,12.55,11.26,3.27,3.27,0,0,0,.7.21h.11v53.07l-32,30.44-13.85,13.14-30.22,28.77v61.2a91.63,91.63,0,0,0,13.85,2.2v-57l16.37-15.68,13.85-13.25,45.36-43.48.48-25.15V209.59c.33-.11.6-.16.92-.27a8.76,8.76,0,0,0,1.56-.54,21.65,21.65,0,0,0-1.61-40.3Zm.26,23.38a7.91,7.91,0,0,1-4.47,4.69,8.77,8.77,0,0,1-6.51.22,8.12,8.12,0,0,1-4.8-4.31,8,8,0,0,1-.27-6.36,8.56,8.56,0,0,1,8-5.44,8.33,8.33,0,0,1,3,.54A8.22,8.22,0,0,1,280.16,191.86Z"/><path class="cls-3" d="M214.23,415C157.64,415,109.16,379.2,74,311.42c-13.88-26.78-23-53.51-28.27-71.22-2.38-8-4.47-15.94-6.22-23.48-.66-2.85-1.14-5.08-1.45-6.59l-.45-2.27-2.72-9.64C26.53,167.7,22.18,142,21.61,119.55c-.94-36.42,8.21-64.51,27.2-83.5,23.4-23.4,55.46-22.66,80.77-19.41,12.27,1.58,24.44,4.07,36.21,6.48L173,24.57c12.75,2.57,26.14,5.08,37.36,5.08h16c26.81,0,49.94-4.93,68.53-8.89,7.47-1.59,14.51-3.09,21-4.12h0c13.85-2.19,24.24-2.14,33.68.17,11.29,2.78,21.73,9.07,31.9,19.24,18.88,18.87,27.71,45.32,27,80.85-.48,23.87-4.92,48.28-9.22,71.88-1.15,6.29-2.29,12.53-3.33,18.66l-.58,2.7c-.35,1.5-.88,3.73-1.61,6.58-1.32,5.17-3.57,13.43-6.78,23.48-5.67,17.73-15.47,44.47-30,71.22C320.16,379.2,270.82,415,214.23,415ZM53.4,205.27l.34,1.64c.29,1.42.74,3.51,1.37,6.19,1.15,5,3.13,12.93,6,22.56,5,17.05,13.84,42.75,27.14,68.4,32.67,63,75.06,95,126,95s94.36-32,128.63-95.24c13.92-25.66,23.35-51.4,28.8-68.48,3.1-9.66,5.26-17.61,6.53-22.57.69-2.68,1.19-4.78,1.52-6.2l.42-1.92c1-6.15,2.18-12.41,3.33-18.72,4.19-23,8.52-46.74,9-69.32.62-31.38-6.47-53.38-22.32-69.23-8.16-8.16-15.92-12.93-24.41-15-7.28-1.78-15.71-1.75-27.36.09-6.06,1-12.91,2.42-20.16,4-19.33,4.12-43.37,9.24-71.87,9.24h-16c-12.69,0-27-2.66-40.52-5.39l-7.2-1.47c-11.49-2.35-23.37-4.78-35-6.28-32.2-4.15-53,.44-67.42,14.86C44.35,63.12,36.77,87.27,37.59,119.14c.55,21.13,4.7,45.59,12.72,74.79Z"/></g></svg>